<svg width="150" height="150" viewBox="0 0 150 150" fill="none" xmlns="http://www.w3.org/2000/svg">
<path d="M58.0631 0.0780359C59.8653 1.38753 60.762 3.12975 61.8201 5.15333C62.1429 5.75846 62.4659 6.36341 62.7892 6.96817C62.9294 7.23469 63.0695 7.50121 63.2139 7.77581C63.5142 8.38 63.5142 8.38 63.8608 8.731C64.3493 8.71288 64.837 8.67025 65.3233 8.6179C65.6319 8.58669 65.9405 8.55548 66.2584 8.52333C66.5938 8.4889 66.9291 8.45447 67.2746 8.419C73.5283 7.8341 79.5875 8.08848 85.8312 8.731C87.0663 6.74909 88.1942 4.74532 89.2462 2.64039C89.8509 1.6561 90.4204 1.06469 91.3238 0.410842C92.7461 0.189233 93.636 0.164661 94.8139 1.09726C95.7811 2.30654 95.9733 2.80008 95.901 4.40452C95.4885 5.57838 94.9519 6.64613 94.3752 7.73259C94.1538 8.15543 93.9325 8.57837 93.7113 9.00141C93.5276 9.35148 93.3439 9.70155 93.1547 10.0622C93.3566 10.1171 93.5586 10.172 93.7667 10.2286C100.35 12.0377 106.743 14.214 112.742 17.7295C113.292 18.0483 113.847 18.3531 114.405 18.6554C118.953 21.1545 123.193 24.3815 127.026 28.0338C127.259 28.2521 127.493 28.4705 127.734 28.6955C131.634 32.423 135.282 36.4187 138.316 41.0132C138.441 41.1993 138.566 41.3854 138.694 41.5771C142.4 47.1591 145.255 53.4218 147.165 59.9832C147.238 60.2296 147.31 60.4759 147.385 60.7297C147.886 62.462 148.314 64.2045 148.691 65.9737C148.741 66.2065 148.792 66.4393 148.844 66.6791C151.571 80.0273 149.306 94.7903 143.809 106.909C143.707 107.132 143.606 107.355 143.502 107.585C140.654 113.779 136.903 119.225 132.518 124.215C132.35 124.41 132.181 124.605 132.007 124.805C129.153 128.089 126.13 130.907 122.754 133.533C122.545 133.698 122.337 133.863 122.122 134.033C110.822 142.91 97.1906 147.99 83.39 149.508C83.0761 149.545 82.7622 149.583 82.4388 149.621C61.6193 151.688 39.9011 145.276 23.5817 130.871C22.5038 129.866 21.4677 128.817 20.4457 127.744C19.754 127.023 19.0507 126.342 18.318 125.671C8.14218 115.98 1.36546 100.151 0.0856023 85.6093C0.0379681 84.6698 0.0217789 83.7317 0.0128921 82.7909C0.00990356 82.5281 0.00691502 82.2653 0.00383592 81.9946C-0.1482 65.1502 4.21165 49.8941 14.4274 37.0196C14.6355 36.7557 14.8436 36.4919 15.0579 36.22C18.3095 32.1905 21.7631 28.5645 25.7177 25.3713C25.8858 25.2325 26.054 25.0938 26.2272 24.9508C35.2594 17.4978 45.6543 13.1227 56.5373 10.0622C56.3391 9.73275 56.1408 9.40327 55.9366 9.06381C55.6788 8.62027 55.4214 8.17651 55.1642 7.73259C54.9677 7.4089 54.9677 7.4089 54.7673 7.07867C53.827 5.43457 53.6177 4.3428 53.791 2.40768C54.1724 1.45095 54.479 0.929683 55.2405 0.30684C56.2548 -0.0311774 57.0063 -0.0610655 58.0631 0.0780359ZM66.6071 15.3871C67.5505 19.5008 67.5505 19.5008 69.3534 23.0417C70.167 23.0712 70.9726 23.08 71.7862 23.0742C72.1513 23.0735 72.1513 23.0735 72.5238 23.0728C73.3042 23.0709 74.0846 23.0667 74.8651 23.0625C75.3929 23.0608 75.9208 23.0593 76.4486 23.0579C77.7453 23.0543 79.0419 23.0485 80.3386 23.0417C81.5074 20.0277 81.5074 20.0277 82.57 16.968C82.7416 16.441 82.9132 15.9141 83.0849 15.3871C80.3333 15.1136 77.6084 15.0028 74.846 15.0127C74.4896 15.0114 74.1332 15.0102 73.7661 15.0088C71.3667 15.0117 68.9964 15.1496 66.6071 15.3871ZM94.0701 17.7168C95.5541 19.6692 97.1567 21.4541 98.8082 23.238C99.2312 23.6975 99.6543 24.157 100.077 24.6165C100.963 25.5778 101.849 26.5376 102.736 27.4977C103.468 28.2901 104.199 29.0829 104.93 29.8765C105.475 30.4689 106.021 31.0605 106.568 31.6513C107.662 32.8392 108.737 34.0263 109.74 35.3062C111.081 37.0081 112.549 38.5736 114.009 40.1535C114.536 40.724 115.062 41.2956 115.588 41.8675C116.704 43.0813 117.822 44.2938 118.939 45.5061C120.236 46.9127 121.533 48.3198 122.828 49.7284C123.342 50.2872 123.857 50.8451 124.373 51.4028C125.841 52.9971 127.274 54.6035 128.621 56.3224C129.79 57.7604 131.058 59.0967 132.307 60.4512C132.605 60.7756 132.903 61.1002 133.201 61.4247C133.978 62.2702 134.755 63.1147 135.532 63.9589C136.329 64.824 137.124 65.6901 137.92 66.5561C139.475 68.2488 141.031 69.9405 142.588 71.6314C143.002 70.2766 142.703 69.1835 142.435 67.825C142.381 67.5455 142.326 67.2661 142.269 66.9782C139.238 52.3532 130.622 38.9593 119.397 30.3634C119.22 30.2273 119.043 30.0911 118.86 29.9508C111.506 24.3401 102.966 19.4743 94.0701 17.7168ZM51.8648 18.6736C51.5502 18.7792 51.2356 18.8848 50.9115 18.9936C34.1885 24.7697 19.8193 37.0389 11.6143 54.0408C9.26541 59.112 7.37889 64.9624 6.79878 70.633C6.89948 70.9625 7.00018 71.292 7.10393 71.6314C9.01746 69.5522 10.9301 67.472 12.8418 65.3907C13.7297 64.424 14.6178 63.4577 15.5066 62.4921C16.366 61.5585 17.2246 60.624 18.0827 59.689C18.4086 59.3342 18.7347 58.9797 19.0611 58.6255C21.1458 56.3718 21.1458 56.3718 23.1162 54.0005C24.4261 52.3328 25.863 50.802 27.2912 49.2564C27.808 48.697 28.3237 48.1366 28.8393 47.5759C30.119 46.1846 31.4004 44.7951 32.6818 43.4055C33.7681 42.2274 34.8537 41.0485 35.9385 39.8687C36.4427 39.3209 36.9479 38.7742 37.4531 38.2274C38.9055 36.651 40.3196 35.0606 41.6522 33.3612C42.8221 31.9225 44.0914 30.5852 45.3411 29.2298C45.6392 28.9054 45.9372 28.5809 46.2351 28.2563C47.0114 27.4108 47.7887 26.5663 48.5662 25.7221C49.3625 24.857 50.158 23.9909 50.9535 23.1249C52.5088 21.4322 54.065 19.7405 55.6219 18.0496C54.4638 17.418 53.0478 18.2761 51.8648 18.6736ZM60.793 21.9788C60.5352 22.2605 60.2773 22.5422 60.0117 22.8324C59.8692 22.9872 59.7267 23.1419 59.5799 23.3014C59.1065 23.8164 58.6354 24.3338 58.1644 24.8513C57.8352 25.2107 57.506 25.5699 57.1766 25.929C56.4844 26.6846 55.7932 27.4412 55.1027 28.1987C54.2233 29.1634 53.342 30.126 52.4599 31.0878C51.7783 31.8312 51.0976 32.5755 50.4171 33.3201C50.0929 33.6748 49.7684 34.0293 49.4438 34.3836C47.3695 36.6423 47.3695 36.6423 45.4045 39.0131C44.1121 40.6567 42.6972 42.1673 41.2889 43.6911C40.7824 44.2392 40.2769 44.7885 39.7716 45.338C38.5173 46.7015 37.2614 48.0633 36.0055 49.425C34.9407 50.5797 33.8765 51.7352 32.8132 52.8915C32.3192 53.4282 31.8242 53.9639 31.3291 54.4996C29.4661 56.5208 29.4661 56.5208 27.7053 58.6474C26.3971 60.3145 24.9611 61.8439 23.534 63.3883C23.0172 63.9476 22.5015 64.5081 21.9859 65.0687C20.7062 66.4601 19.4248 67.8496 18.1434 69.2391C17.0571 70.4173 15.9715 71.5962 14.8866 72.776C14.3824 73.3237 13.8773 73.8705 13.3721 74.4172C11.8857 76.0309 10.4259 77.6481 9.08751 79.4127C8.58005 80.01 8.03565 80.4581 7.42814 80.9292C6.66849 81.6114 6.66849 81.6114 6.39031 82.6067C6.44539 84.3236 6.57147 85.9953 6.83692 87.6893C6.87542 87.9394 6.91392 88.1895 6.95359 88.4472C7.59507 93.6989 7.59507 93.6989 9.54508 98.2559C11.1804 98.6149 12.8129 98.8127 14.4274 98.2559C15.9612 97.1369 17.0855 95.5147 18.2099 93.9416C19.705 91.8716 21.3704 89.9566 23.0287 88.0429C24.4409 86.4069 25.8488 84.7672 27.2435 83.1133C28.9821 81.053 30.7381 79.0108 32.4953 76.9693C33.595 75.6916 34.6917 74.4108 35.7875 73.1291C39.0351 69.3318 42.2939 65.5461 45.5579 61.7657C46.9311 60.1751 48.302 58.5822 49.6716 56.9879C50.2369 56.3301 50.8023 55.6724 51.3678 55.0147C51.7787 54.5367 52.1895 54.0586 52.6002 53.5804C53.2511 52.8231 53.9024 52.0662 54.5539 51.3094C54.7512 51.0797 54.9484 50.85 55.1517 50.6133C56.0837 49.5314 57.0244 48.4632 57.9903 47.4172C58.6893 46.6601 59.3563 45.8936 59.9893 45.0693C61.0703 43.6987 62.2378 42.4383 63.4245 41.177C63.6692 40.9033 63.9139 40.6296 64.1659 40.3476C64.4507 40.0405 64.7355 39.7333 65.0289 39.4168C65.8624 38.0761 65.804 37.1751 65.5772 35.6467C65.5281 35.2592 65.5281 35.2592 65.4781 34.8639C64.841 30.2217 63.7264 25.6923 62.0299 21.3777C61.3569 21.3044 61.3569 21.3044 60.793 21.9788ZM87.6621 21.3777C86.1881 25.2337 85.1868 29.1067 84.4589 33.2085C84.3281 33.9042 84.1639 34.5922 83.9932 35.2775C83.7632 36.4758 83.6996 37.166 84.0003 38.3508C85.0122 40.0282 86.3506 41.3999 87.6947 42.7574C89.0082 44.0887 90.2843 45.4639 91.4382 46.9622C92.229 47.9638 93.0547 48.9044 93.9175 49.8326C94.9572 50.9512 95.9237 52.108 96.8736 53.3167C97.491 54.0714 98.1397 54.78 98.7998 55.4903C99.8395 56.6089 100.806 57.7657 101.756 58.9744C102.592 59.9964 103.493 60.9443 104.387 61.9059C105.184 62.7878 105.92 63.7145 106.658 64.6542C107.412 65.5796 108.223 66.4367 109.032 67.3049C109.802 68.158 110.51 69.06 111.225 69.9674C111.791 70.6608 112.382 71.3129 112.989 71.9642C113.981 73.0293 114.895 74.1415 115.802 75.2923C116.56 76.2205 117.373 77.0818 118.185 77.9535C118.962 78.8142 119.678 79.7237 120.4 80.6393C121.067 81.4598 121.779 82.2212 122.497 82.9889C123.038 83.5889 123.543 84.2068 124.046 84.8449C125.184 86.2723 126.366 87.6487 127.56 89.0206C130.282 92.1627 130.282 92.1627 131.523 93.6357C131.931 94.12 132.343 94.6007 132.755 95.0813C133.434 95.9263 133.434 95.9263 133.874 96.6881C134.308 97.4345 134.554 97.8181 135.265 98.2559C136.913 98.4477 138.497 98.3906 140.147 98.2559C141.099 95.8912 141.714 93.5655 142.188 91.0382C142.252 90.7077 142.317 90.3771 142.384 90.0365C142.71 88.3444 142.998 86.6602 143.198 84.9437C143.237 84.6794 143.275 84.4152 143.314 84.1429C143.378 83.3457 143.358 82.7324 143.198 81.9484C142.726 81.3522 142.726 81.3522 142.1 80.844C140.834 79.7038 139.738 78.4744 138.632 77.1552C136.559 74.7199 134.427 72.353 132.269 70.0077C132.112 69.8364 131.954 69.6651 131.792 69.4886C130.656 68.2534 129.518 67.0198 128.38 65.7865C127.23 64.5409 126.082 63.2948 124.934 62.0472C124.483 61.5569 124.03 61.0677 123.578 60.5785C122.41 59.3097 121.254 58.0464 120.183 56.6799C118.867 55.0072 117.426 53.47 115.993 51.9188C115.476 51.3595 114.96 50.7991 114.445 50.2384C113.35 49.0483 112.254 47.8595 111.158 46.6709C109.886 45.2919 108.615 43.9122 107.345 42.5312C106.841 41.9834 106.336 41.4366 105.831 40.8899C104.376 39.3104 102.957 37.7174 101.622 36.0147C100.503 34.6322 99.2924 33.3425 98.0978 32.0379C97.8178 31.7314 97.5378 31.4249 97.2493 31.1091C96.6618 30.4664 96.0737 29.8243 95.4852 29.1827C94.7301 28.3592 93.9772 27.5335 93.2248 26.7072C92.5047 25.9172 91.7824 25.1296 91.0604 24.3417C90.7899 24.0443 90.5194 23.7469 90.2407 23.4405C89.9911 23.1693 89.7414 22.898 89.4842 22.6185C89.2643 22.3782 89.0445 22.138 88.8179 21.8904C88.3153 21.3052 88.3153 21.3052 87.6621 21.3777ZM71.1843 30.0306C71.296 32.6999 71.296 32.6999 71.7946 33.6915C73.8085 33.6915 75.8225 33.6915 77.8974 33.6915C78.5447 31.325 78.5447 31.325 78.5077 30.0306C76.091 30.0306 73.6742 30.0306 71.1843 30.0306ZM72.0997 40.6804C71.7148 42.4968 71.7148 42.4968 71.7946 45.0069C73.8085 45.0069 75.8225 45.0069 77.8974 45.0069C77.7464 42.8653 77.7464 42.8653 77.5923 40.6804C75.7797 40.6804 73.9672 40.6804 72.0997 40.6804ZM63.5151 50.9974C63.3205 51.2091 63.1258 51.4208 62.9252 51.6388C62.7179 51.8665 62.5106 52.0941 62.2969 52.3287C62.0868 52.5584 61.8767 52.7882 61.6603 53.025C60.4765 54.3272 59.3315 55.6461 58.2466 57.0477C57.4369 58.0515 56.5514 58.9719 55.6791 59.9104C55.0735 60.5804 54.5048 61.266 53.9436 61.98C52.9514 63.2426 51.8817 64.4009 50.7968 65.5681C50.1912 66.2381 49.6225 66.9237 49.0613 67.6378C48.0691 68.9003 46.9994 70.0586 45.9145 71.2258C45.3089 71.8958 44.7401 72.5814 44.179 73.2955C43.1871 74.5575 42.1179 75.7154 41.0334 76.8822C40.2362 77.7641 39.5002 78.6908 38.7615 79.6305C38.0075 80.5558 37.1968 81.413 36.3883 82.2812C35.8059 82.9265 35.2605 83.5915 34.7195 84.2781C33.8206 85.4189 32.8698 86.4784 31.8778 87.5229C31.303 88.1678 30.763 88.826 30.2234 89.5055C28.8369 91.2472 27.3711 92.9042 25.9037 94.5645C25.696 94.8024 25.4883 95.0403 25.2743 95.2854C24.9951 95.6024 24.9951 95.6024 24.7102 95.9259C24.0688 96.7137 24.0688 96.7137 23.2766 98.2559C34.9575 98.2559 46.6384 98.2559 58.6733 98.2559C60.1015 89.0284 60.1015 89.0284 61.3851 79.78C61.4554 79.2417 61.5259 78.7034 61.5964 78.1651C61.7404 77.0639 61.8837 75.9626 62.0261 74.8612C62.2053 73.4762 62.3862 72.0915 62.5676 70.7069C63.2077 65.8202 63.8431 60.9325 64.4198 56.0363C64.476 55.5706 64.476 55.5706 64.5333 55.0955C64.73 53.3815 64.8106 51.7264 64.7762 49.999C64.2198 49.999 63.8891 50.5903 63.5151 50.9974ZM84.9158 49.999C85.0812 54.7401 85.6749 59.4058 86.2698 64.1017C86.3221 64.5183 86.3743 64.935 86.4281 65.3643C87.3373 72.6139 88.3158 79.8517 89.3213 87.0861C89.3551 87.3296 89.3889 87.5731 89.4237 87.824C89.6485 89.4429 89.8748 91.0616 90.102 92.6801C90.1595 93.0914 90.2169 93.5027 90.276 93.9265C90.3293 94.3035 90.3826 94.6804 90.4375 95.0689C90.4837 95.3969 90.5298 95.7249 90.5774 96.0629C90.6939 96.8004 90.8522 97.5299 91.0186 98.2559C102.7 98.2559 114.381 98.2559 126.415 98.2559C125.688 96.934 125.186 96.1817 124.203 95.1567C123.132 94.0366 122.156 92.8601 121.185 91.6387C120.253 90.4823 119.281 89.3681 118.31 88.251C117.878 87.7523 117.446 87.2535 117.014 86.7546C116.8 86.5067 116.585 86.2588 116.364 86.0034C115.426 84.9187 114.493 83.8292 113.561 82.7389C113.387 82.5352 113.213 82.3316 113.034 82.1217C112.336 81.306 111.639 80.49 110.942 79.674C108.279 76.5582 105.607 73.4525 102.929 70.3525C102.111 69.4056 101.294 68.4581 100.476 67.5107C100.072 67.0424 99.6679 66.5742 99.2637 66.106C98.2113 64.8869 97.1598 63.6669 96.1096 62.4455C95.8926 62.1934 95.6757 61.9414 95.4522 61.6817C95.0411 61.204 94.6302 60.726 94.2197 60.2478C93.2932 59.1719 92.3581 58.1099 91.3977 57.0698C90.6983 56.3123 90.0309 55.5455 89.3976 54.7207C88.0872 53.0637 86.6865 51.4934 85.2209 49.999C85.1202 49.999 85.0195 49.999 84.9158 49.999ZM71.1843 51.9959C71.0836 52.6274 70.9829 53.2589 70.8791 53.9095C70.8225 54.2647 70.7658 54.6199 70.7075 54.9859C70.5448 56.0401 70.5448 56.0401 70.574 57.3208C73.3935 57.3208 76.213 57.3208 79.118 57.3208C78.9166 55.5635 78.7152 53.8063 78.5077 51.9959C76.091 51.9959 73.6742 51.9959 71.1843 51.9959ZM69.6585 64.3097C69.5283 65.2827 69.3981 66.2557 69.264 67.2581C67.9996 76.6743 66.6971 86.0841 65.3674 95.4895C65.3266 95.7785 65.2858 96.0674 65.2437 96.3651C63.6033 107.962 61.8657 119.54 60.0995 131.115C60.0031 131.747 59.9068 132.379 59.8104 133.011C59.6309 134.189 59.4506 135.366 59.2699 136.543C59.1901 137.066 59.1103 137.588 59.0306 138.11C58.994 138.347 58.9574 138.584 58.9197 138.828C58.7363 140.002 58.7363 140.002 58.6733 141.188C59.8745 141.405 61.0762 141.619 62.2779 141.833C62.6136 141.894 62.9493 141.954 63.2952 142.017C67.0598 142.683 70.7486 142.93 74.5599 142.935C74.8982 142.936 74.8982 142.936 75.2432 142.937C80.5697 142.938 85.8045 142.401 91.0186 141.188C89.8922 133.269 88.7175 125.358 87.5289 117.449C87.414 116.684 87.2993 115.919 87.1846 115.154C87.0018 113.934 86.8184 112.715 86.6346 111.495C86.566 111.04 86.4976 110.584 86.4293 110.128C86.335 109.499 86.24 108.87 86.1449 108.241C86.0648 107.708 86.0648 107.708 85.983 107.165C85.8573 106.402 85.71 105.66 85.526 104.912C85.2559 104.91 85.2559 104.91 84.9803 104.908C83.1041 104.894 81.2281 104.871 79.352 104.843C78.6521 104.834 77.9521 104.827 77.2521 104.822C76.2453 104.815 75.2388 104.799 74.2321 104.782C73.9196 104.782 73.6071 104.781 73.2851 104.781C71.9401 104.751 71.1034 104.722 69.9258 103.971C69.12 102.953 69.0483 102.253 69.0483 100.918C69.3969 99.7986 69.6198 99.1344 70.5778 98.5415C71.8675 98.1375 73.1059 98.137 74.4419 98.1181C74.7242 98.1117 75.0065 98.1053 75.2974 98.0986C76.1958 98.0788 77.0943 98.0633 77.9928 98.0479C78.6033 98.0352 79.2138 98.0222 79.8243 98.0089C81.318 97.977 82.8117 97.9491 84.3055 97.9231C84.1184 94.1683 83.6149 90.4826 83.1028 86.7676C83.0141 86.1172 82.9257 85.4668 82.8373 84.8163C82.6062 83.1184 82.3735 81.4208 82.1405 79.7233C81.9022 77.9854 81.6655 76.2472 81.4286 74.509C80.9651 71.109 80.4997 67.7093 80.0334 64.3097C76.6097 64.3097 73.186 64.3097 69.6585 64.3097ZM12.2914 104.912C15.6104 112.152 20.4855 119.133 26.328 124.215C26.6368 124.49 26.9456 124.765 27.2637 125.048C32.44 129.612 38.082 133.455 44.2171 136.3C44.4239 136.396 44.6307 136.492 44.8438 136.591C46.5108 137.335 48.2148 137.949 49.9235 138.566C50.1783 138.658 50.4331 138.751 50.6956 138.846C51.3205 139.072 51.9455 139.298 52.5704 139.524C53.1573 135.699 53.7436 131.874 54.3292 128.049C54.6012 126.273 54.8734 124.496 55.146 122.72C55.4096 121.002 55.6727 119.285 55.9354 117.567C56.0353 116.915 56.1352 116.263 56.2354 115.611C56.3768 114.691 56.5176 113.77 56.6582 112.85C56.7191 112.455 56.7191 112.455 56.7812 112.052C57.143 109.676 57.4453 107.299 57.7579 104.912C42.754 104.912 27.75 104.912 12.2914 104.912ZM91.9341 104.912C93.9495 122.08 93.9495 122.08 97.1215 139.191C106.303 137.172 115.437 131.556 122.449 124.88C122.675 124.67 122.901 124.459 123.134 124.242C128.977 118.664 133.912 112.522 137.401 104.912C122.397 104.912 107.393 104.912 91.9341 104.912Z" fill="black"/>
</svg>
